<svg id="Слой_2" xmlns="http://www.w3.org/2000/svg" viewBox="0 0 490 490"><style>.st0{fill:#fbb623}</style><path class="st0" d="M53 44.4h240v401H53z"/><path fill="#fff" d="M88 88.4h174v117H88z"/><path d="M262 80H85c-5.5 0-10 4.5-10 10v117c0 5.5 4.5 10 10 10h177c5.5 0 10-4.5 10-10V90c0-5.5-4.5-10-10-10zm-10 117H95v-97h157v97z"/><path d="M473.6 439H306V279h16.3c14.8 0 26.8 12.1 26.7 26.9v27.9c0 29.3 23.7 53 53 53s53-23.7 53-53V175.6c0-16.4-6.1-32.2-17.3-44.3l-78.2-89.1-15 13.2 60.6 69.1c-21.9 3.7-36.7 24.4-33 46.3 3.2 19.4 20 33.6 39.7 33.6 8.3-.1 16.4-2.6 23.2-7.4v136.8c0 18.2-14.8 33-33 33s-33-14.8-33-33v-27.7c.1-25.9-20.8-47-46.6-47.1H306V72.7c0-22.8-18.4-41.7-41.2-41.7H79c-22.8 0-41 19-41 41.7V439H16.4c-5.5 0-10 4.5-10 10s4.5 10 10 10h457.3c5.5 0 10-4.5 10-10s-4.6-10-10.1-10zm-61.8-254.7c-11.2 0-20.2-9.1-20.2-20.2s9.1-20.2 20.2-20.2c11.2 0 20.2 9.1 20.2 20.2s-9.1 20.2-20.2 20.2zM286 439H58V72.7C58 60.9 67.2 51 79 51h185.8c11.8 0 21.2 10 21.2 21.7V439z"/><circle class="st0" cx="411.4" cy="163.8" r="19.9"/></svg>