<svg id="Слой_2" xmlns="http://www.w3.org/2000/svg" viewBox="0 0 500 500"><style>.st0{fill:#fbb623}</style><path d="M250 405.9c-17 0-30.7 13.8-30.7 30.7 0 17 13.8 30.7 30.7 30.7 17 0 30.7-13.8 30.7-30.7 0-17-13.8-30.7-30.7-30.7zm0 41.4c-5.9 0-10.7-4.8-10.7-10.7 0-5.9 4.8-10.7 10.7-10.7s10.7 4.8 10.7 10.7c0 5.9-4.8 10.7-10.7 10.7zm33.7-404.2h-67.4c-5.5 0-10 4.5-10 10s4.5 10 10 10h67.4c5.5 0 10-4.5 10-10s-4.5-10-10-10z"/><path d="M351.8 7.1H148.2C125.5 7 107.1 25.4 107 48v404.1c.1 22.7 18.5 41 41.2 40.9h203.6c22.7.1 41.1-18.2 41.2-40.9V48c-.1-22.6-18.5-41-41.2-40.9zm21.2 445c-.1 11.6-9.6 21-21.2 20.9H148.2c-11.6.1-21.1-9.3-21.2-20.9V400h246v52.1zm0-72H127v-275h246v275zm0-295H127V48c.1-11.6 9.6-21 21.2-20.9h203.6c11.6-.1 21.1 9.3 21.2 20.9v37.1z"/><circle class="st0" cx="250" cy="436.6" r="10.7"/><path class="st0" d="M251.3 212.5c-14.6 0-26.5 11.9-26.5 26.5s11.9 26.5 26.5 26.5 26.5-11.9 26.5-26.5-11.9-26.5-26.5-26.5zm0 39.2c-7 0-12.7-5.7-12.7-12.7 0-7 5.7-12.7 12.7-12.7 7 0 12.7 5.7 12.7 12.7 0 7-5.7 12.7-12.7 12.7zm-65.7-72.4c2.7-2.7 2.7-7.1 0-9.8-2.7-2.7-7.1-2.7-9.8 0-38 38.3-38 100.6 0 138.9 1.4 1.4 3.1 2 4.9 2 1.8 0 3.5-.7 4.9-2 2.7-2.7 2.7-7.1 0-9.8-32.7-32.8-32.7-86.4 0-119.3zm141.1-9.7c-2.7-2.7-7.1-2.7-9.8 0-2.7 2.7-2.7 7.1 0 9.8 32.7 32.9 32.7 86.5 0 119.4-2.7 2.7-2.7 7.1 0 9.8 1.3 1.3 3.1 2 4.9 2 1.8 0 3.6-.7 4.9-2 38.1-38.4 38.1-100.7 0-139z"/><path class="st0" d="M214.9 208.4c2.7-2.7 2.7-7.1 0-9.8-2.7-2.7-7.1-2.7-9.8 0-22.3 22.3-22.3 58.5 0 80.8 1.3 1.4 3.1 2 4.9 2 1.8 0 3.5-.7 4.9-2 2.7-2.7 2.7-7.1 0-9.8-16.9-16.9-16.9-44.3 0-61.2zm82.5-9.8c-2.7-2.7-7.1-2.7-9.8 0-2.7 2.7-2.7 7.1 0 9.8 16.9 16.9 16.9 44.4 0 61.2-2.7 2.7-2.7 7.1 0 9.8 1.4 1.4 3.1 2 4.9 2 1.8 0 3.5-.7 4.9-2 22.3-22.3 22.3-58.5 0-80.8z"/></svg>