<svg xmlns="http://www.w3.org/2000/svg" viewBox="0 0 500 500"><path d="M247.7 107.2c-55.3 0-100.2 45-100.2 100.2s45 100.2 100.2 100.2 100.2-45 100.2-100.2S303 107.2 247.7 107.2zm0 180c-44 0-79.8-35.8-79.8-79.8s35.8-79.8 79.8-79.8 79.8 35.8 79.8 79.8-35.8 79.8-79.8 79.8zm-5.3 40.3c-88.4 0-157.6 71.6-157.6 163 0 0 0 9.8 9.8 9.8 9.7 0 9.6-9.8 9.6-9.8 0-76.1 65.2-143.6 138.1-143.6s138.1 67.5 138.1 143.6c0 0-.2 9.8 9.6 9.8 9.8 0 9.8-9.8 9.8-9.8.1-91.4-69.1-163-157.4-163z"/><path fill="#fbb623" d="M181.3 63.1l-.1 59.1-4.3 22.2 162.3 31.1 4.3-22.3 22.1-55.8-45 9.6-29.1-53.3-22.1-7-48.1 38.5-8.9-.9L188 55.1z"/><path d="M391.3 43.8c-15.9-3-31.4 7.4-34.4 23.3-.9 5-.6 9.9.8 14.4l-35.2 17.6L300 53.3c6-4.2 10.4-10.7 11.9-18.4 3-15.9-7.4-31.4-23.3-34.4s-31.4 7.4-34.4 23.3c-1.4 7.5.1 14.9 3.8 20.9L217.7 79l-23.8-28.3c3.2-3.7 5.5-8.3 6.5-13.5 3-15.9-7.4-31.4-23.3-34.4s-31.4 7.4-34.4 23.3c-2.9 15.1 6.4 29.8 20.9 33.8l.1 59.7-5.8 30.1c-.9 4.8 2.2 9.4 7 10.3l179.6 34.4c4.8.9 9.4-2.2 10.3-7l5.8-30 22.1-55.4c15 1.6 29-8.6 31.9-23.7 3.1-16-7.3-31.4-23.3-34.5zm-106-25.9c6.4 1.2 10.6 7.4 9.3 13.8-1.2 6.4-7.4 10.6-13.8 9.3-6.4-1.2-10.6-7.4-9.3-13.8 1.2-6.4 7.4-10.6 13.8-9.3zm-116 25.4c-6.4-1.2-10.6-7.4-9.3-13.8s7.4-10.6 13.8-9.3c6.4 1.2 10.6 7.4 9.3 13.8s-7.4 10.5-13.8 9.3zm169.9 132.2l-162.3-31.1 4.3-22.2.1-9-.1-50.1 28.7 34.1c1.3 1.6 3.1 2.6 5.1 3 .3.1.6.1.9.1 2.3.2 4.7-.5 6.5-2.1l49.1-41.8c1.9.8 3.9 1.4 6 1.8 1.9.4 3.7.5 5.6.5l27.6 56.1c1 2.1 2.9 3.7 5.1 4.5l1.2.3c1.9.4 3.9.1 5.6-.8l43-21.6-19 47.5-3.2 8.4-4.2 22.4zm44.4-91.2c-6.4-1.2-10.6-7.4-9.3-13.8 1.2-6.4 7.4-10.6 13.8-9.3s10.6 7.4 9.3 13.8c-1.3 6.3-7.4 10.5-13.8 9.3z"/></svg>