<svg id="Слой_2" xmlns="http://www.w3.org/2000/svg" viewBox="0 0 500 500"><style>.st0{fill:#fbb623}</style><circle class="st0" cx="191.7" cy="436.5" r="10.7"/><path d="M191.7 405.9c-17 0-30.7 13.8-30.7 30.7 0 17 13.8 30.7 30.7 30.7 17 0 30.7-13.8 30.7-30.7 0-17-13.8-30.7-30.7-30.7zm0 41.4c-5.9 0-10.7-4.8-10.7-10.7 0-5.9 4.8-10.7 10.7-10.7s10.7 4.8 10.7 10.7c0 5.9-4.8 10.7-10.7 10.7zm33.7-404.2H158c-5.5 0-10 4.5-10 10s4.5 10 10 10h67.4c5.5 0 10-4.5 10-10s-4.5-10-10-10z"/><path d="M293.6 7.1H89.9C67.2 7 48.8 25.4 48.7 48v404.1c.1 22.7 18.5 41 41.2 40.9h203.6c22.7.1 41.1-18.2 41.2-40.9V48c0-22.6-18.4-41-41.1-40.9zm21.2 445c-.1 11.6-9.6 21-21.2 20.9H90c-11.6.1-21.1-9.3-21.2-20.9V400h246v52.1zm0-72h-246v-275h246v275zm0-295h-246V48c.1-11.6 9.6-21 21.2-20.9h203.6c11.6-.1 21.1 9.3 21.2 20.9v37.1z"/><path d="M234 216.9c0 23.8 8.8 45.6 23.2 62.2 5 5.8-19.4 32.8-13.1 37.3 7.3 5.1 45.5-12.6 54.1-9.6 9.7 3.3 20 5.1 30.8 5.1 52.5 0 95-42.5 95-95s-42.5-95-95-95-95 42.5-95 95z" fill="#fff"/><path d="M329.9 104.9c-61.5 0-111.4 50-111.4 111.4 0 13.8 2.6 27.4 7.7 40.5 4 10 9.2 19.2 15.6 27.4l-15.2 35.4c-1.2 2.9-.8 6.2 1.1 8.6 1.6 2.1 4.1 3.2 6.7 3.2.5 0 1 0 1.5-.1l57.4-10.1c11.4 4.1 24 6.2 36.4 6.2 61.5 0 111.4-50 111.4-111.4-.1-61.2-49.9-111.1-111.2-111.1zm-.3 205.7c-11.2 0-22.5-2.1-32.6-5.9-1.4-.6-3-.7-4.5-.4l-44.2 7.8 11.1-25.7c1.3-3 .7-6.4-1.4-8.9-6.7-7.8-12.1-16.7-16-26.7-4.3-11-6.5-22.6-6.5-34.3 0-52.1 42.4-94.5 94.5-94.5 51.9 0 94.2 42.3 94.2 94.2-.1 52-42.5 94.4-94.6 94.4z"/><path class="st0" d="M296.4 212.6l8 8c4.2 4.2 4.2 11.6-.1 15.9-4.2 4.2-11.6 4.2-15.8 0l-.1-.1-7.9-7.9-8 8c-4.3 4.3-11.6 4.2-15.9-.1-4.2-4.2-4.3-11.4 0-15.8l8-8-8-8c-4.3-4.3-4.2-11.6 0-15.8 4.3-4.3 11.6-4.5 15.9-.1l8 8 8-8c4.2-4.2 11.6-4.2 15.8 0 4.3 4.3 4.3 11.7.1 15.9l-.1.1-7.9 7.9zm31.4 40.4c-.8-1.9-1.8-4-2.4-6.1-.3-1.1-.6-2.4-.8-3.6-.3-2.3-.6-4.5-.6-7 0-6.5 5.5-12 12-12 6.6 0 12.1 5.5 12.1 12v1.8c.3 1.1.6 2.3 1 3.2.5 1.1 1.1 2.1 1.6 2.9l2.4 2.4c1 .6 1.9 1.1 2.9 1.6s2.1.6 3.2 1h3.6c1.1-.3 2.1-.5 3.2-1 1-.5 1.9-1 2.9-1.6.8-.8 1.6-1.6 2.3-2.4.6-.8 1.3-1.8 1.8-2.9.3-1 .6-2.1.8-3.2.2-1.1.2-2.3 0-3.4s-.5-2.3-.8-3.4c-.5-1-1.1-1.9-1.8-2.9-.6-.8-1.5-1.6-2.3-2.3-1-.6-1.9-1.3-2.9-1.8-1.1-.3-2.1-.6-3.2-.8-.6 0-1.3-.2-1.8-.2-1.9 0-3.9-.5-5.7-1.3-3.9-2.1-6.6-6.1-6.6-10.8 0-6.6 5.5-12 12.1-12.1h1.3c.8-.2 1.5-.3 2.3-.6s1.5-.8 2.1-1.1l1.8-1.8c.5-.6.8-1.3 1.1-2.1.3-.8.5-1.6.6-2.4.2-.8.2-1.6 0-2.4-.2-.8-.3-1.6-.6-2.4-.3-.6-.6-1.5-1.1-2.1-.6-.6-1.1-1.1-1.8-1.6-.6-.5-1.3-1-2.1-1.3s-1.5-.5-2.3-.6h-2.6c-.8.2-1.6.3-2.4.6-.6.3-1.5.8-2.1 1.3-.5.5-1.1 1-1.6 1.6-.5.6-1 1.5-1.3 2.1 0 .3-.2.5-.3.8-.8 3.1-2.7 5.7-5.5 7.3-2.7 1.6-6.1 1.9-9.2 1.1-6.3-1.6-10.4-8.6-8.4-14.9.6-2.3 1.6-4.5 2.7-6.8 1.1-2.1 2.6-4 4.2-6 .8-1 1.6-1.8 2.6-2.6 1.6-1.5 3.4-2.9 5.3-4s4-2.1 6.1-2.9c1.1-.5 2.4-.8 3.7-1 2.3-.5 4.5-.8 7-1 2.3 0 4.5.3 6.8.6 1.3.3 2.4.5 3.6 1 2.1.6 4.2 1.5 6.1 2.6 1.1.5 2.1 1.1 3.1 1.9 1.6 1.3 3.4 2.6 5 4.2 1.5 1.5 2.7 3.2 4 5 .6 1 1.3 2.1 1.8 3.2.8 1.9 1.8 4 2.4 6.1.5 2.1.8 4.4 1 6.6.2 1.3.2 2.6.2 3.9-.3 2.3-.5 4.5-1.1 6.8-.5 2.1-1.5 4.2-2.3 6.1-.5 1.1-1.1 2.1-1.8 3.2-.5.8-1.1 1.8-1.8 2.6 1.8 1.8 3.4 3.9 4.9 6.1.6 1 1.3 1.9 1.8 3.1 1 1.9 1.8 4 2.4 6.1.5 1.1.6 2.4.8 3.6.5 2.3.8 4.5.8 6.8 0 2.4-.3 4.7-.6 7-.2 1.1-.5 2.4-.8 3.6-.6 2.1-1.5 4.2-2.4 6.1-.5 1.1-1 2.3-1.6 3.2-1.3 1.8-2.6 3.6-4 5.2-.6 1-1.6 1.8-2.4 2.6-2.6 2.3-5.3 4.4-8.4 5.8-3.1 1.5-6.3 2.7-9.7 3.2-2.3.3-4.5.6-6.8.6-2.3.2-4.5-.3-7-.6-3.4-.5-6.6-1.8-9.7-3.2-3.1-1.3-5.8-3.4-8.4-5.7-.8-.8-1.8-1.6-2.4-2.4-1.5-1.8-2.9-3.4-4-5.2-.8-.9-1.5-1.9-2-3z"/></svg>