<svg xmlns="http://www.w3.org/2000/svg" viewBox="0 0 500 500"><circle cx="238.8" cy="413" r="46.8" fill="#fbb623"/><path d="M349.2 112c-3.9-33.8-34.2-60.3-70.9-60.3-4.6 0-9 .5-12.9 1.2-14.9-19.7-38.6-31.6-63.5-31.6-43.9 0-79.6 35.7-79.6 79.6 0 5.9.6 11.7 1.9 17.4-21 12.1-34.1 33.9-34.1 57.9 0 37.3 32 67.7 71.3 67.7h164.7c39.3 0 71.3-30.4 71.3-67.7 0-29.7-19.4-55-48.2-64.2zm-23.1 110.3H161.4c-27.3 0-49.6-20.6-49.6-46 0-18.3 11.6-34.8 29.4-42.1 5.4-2.2 8.1-8.2 6.2-13.6-2.3-6.5-3.4-12.9-3.4-19.6 0-31.9 26-57.9 57.9-57.9 20 0 38.9 10.6 49.4 27.7 2.5 4 7.3 6 11.9 4.9 6.2-1.5 10.7-2.2 15.1-2.2 27.3 0 49.6 20.6 49.6 46v1.1c0 5.2 3.7 9.6 8.8 10.7 23 4.5 39 23.1 39 45.1 0 25.2-22.3 45.9-49.6 45.9z"/><path d="M238.8 234.1c-5.3 0-9.6 4.3-9.6 9.6v105.6c0 5.3 4.3 9.6 9.6 9.6s9.6-4.3 9.6-9.6V243.7c0-5.3-4.3-9.6-9.6-9.6z"/><path d="M238.8 347.3c-36.2 0-65.7 29.5-65.7 65.7s29.5 65.7 65.7 65.7 65.7-29.5 65.7-65.7-29.5-65.7-65.7-65.7zm0 110.7c-24.8 0-45-20.2-45-45s20.2-45 45-45 45 20.2 45 45-20.2 45-45 45zM136.2 226.8l-62.4 62.4c-3.7 3.7-3.7 9.8 0 13.6 3.7 3.7 9.8 3.7 13.6 0l62.4-62.4c3.7-3.7 3.7-9.8 0-13.6s-9.9-3.8-13.6 0zm283.6 64.1L354 225.1c-3.7-3.7-9.8-3.7-13.6 0-3.7 3.7-3.7 9.8 0 13.6l65.8 65.8c3.7 3.7 9.8 3.7 13.6 0 3.8-3.8 3.8-9.8 0-13.6z"/><path d="M448 277.4c-27.9 0-50.6 22.7-50.6 50.6s22.7 50.6 50.6 50.6c27.9 0 50.6-22.7 50.6-50.6s-22.7-50.6-50.6-50.6zm0 85.2c-19.1 0-34.7-15.6-34.7-34.7s15.6-34.7 34.7-34.7 34.7 15.6 34.7 34.7-15.6 34.7-34.7 34.7zM52 277.4c-27.9 0-50.6 22.7-50.6 50.6s22.7 50.6 50.6 50.6c27.9 0 50.6-22.7 50.6-50.6S79.9 277.4 52 277.4zm0 85.2c-19.1 0-34.7-15.6-34.7-34.7s15.6-34.7 34.7-34.7 34.7 15.6 34.7 34.7-15.6 34.7-34.7 34.7z"/></svg>