<svg xmlns="http://www.w3.org/2000/svg" viewBox="0 0 420 360"><path d="M94.5 200h30.7v37.3H94.5zm39.5-45.7h30.7v37.3H134zm38.1 85.5h30.7v37.3h-30.7zm37.7-41.7h30.7v37.3h-30.7zM19.8 47.6H313v52.9H19.8z" fill="#fbb623"/><path d="M329.2 300.4V67.1c.5-19.3-14.8-35.4-34.2-35.8h-43.1V10.5c0-4.5-3.6-8.1-8.1-8.1s-8.1 3.6-8.1 8.1v20.8H97.1V10.5c0-4.5-3.6-8.1-8.1-8.1s-8.1 3.6-8.1 8.1v20.8H39.3C20 30.9 3.9 46.2 3.5 65.5v234.9c-.5 19.6 15 35.8 34.6 36.2h255.3c19.6.2 35.6-15.4 35.8-35v-1.2zM37.7 47.6h43.2V68c0 4.5 3.6 8.1 8.1 8.1s8.1-3.6 8.1-8.1V47.6h138.4V68c0 4.5 3.6 8.1 8.1 8.1s8.1-3.6 8.1-8.1V47.6h41.5c10.3-.5 19.1 7.5 19.5 17.9v35.1H19.8V67.1c-.5-10.3 7.5-19 17.9-19.5zm256.9 272.8H39.3c-10.6.2-19.3-8.1-19.6-18.7V116.8h293.1v183.6c.6 10.6-7.6 19.5-18.2 20z"/><path fill="none" stroke="#000" stroke-width="10.29" stroke-linecap="round" stroke-linejoin="round" stroke-miterlimit="10" d="M52.7 151.8h230.5v129.6H52.7z"/><path d="M56.6 195.8h222.6m-222.6 42h222.6" fill="none" stroke="#000" stroke-width="8" stroke-linecap="round" stroke-linejoin="round" stroke-miterlimit="10"/><path d="M90.1 278.4V151.8m79 126.6V151.8m-39.5 126.6V151.8m75.8 126.6V151.8m39.5 126.6V151.8" stroke-width="8.279" fill="none" stroke="#000" stroke-linecap="round" stroke-linejoin="round" stroke-miterlimit="10"/><circle cx="312.9" cy="256.7" r="83.7" fill="#fff"/><path d="M312.9 155.8c-55.6 0-100.9 45.3-100.9 100.9 0 23.3 8 44.8 21.3 61.9l-17.1 21.7c-2.9 3.7-2.3 9.1 1.4 12 1.6 1.2 3.4 1.8 5.3 1.8 2.5 0 5-1.1 6.7-3.3l15.5-19.6c17.9 16.3 41.7 26.3 67.8 26.3 26.1 0 49.9-10 67.8-26.3l15.5 19.6c1.7 2.1 4.2 3.3 6.7 3.3 1.9 0 3.7-.6 5.3-1.9 3.7-2.9 4.3-8.3 1.4-12l-17.1-21.7c13.3-17.1 21.3-38.6 21.3-61.9 0-55.5-45.2-100.8-100.9-100.8zm0 184.6c-46.2 0-83.7-37.6-83.7-83.7s37.6-83.7 83.7-83.7 83.7 37.6 83.7 83.7-37.5 83.7-83.7 83.7z"/><path d="M355 212.4l-41.8 41.3-16-16c-3.4-3.3-8.8-3.3-12.1 0-3.3 3.4-3.3 8.8 0 12.1l22.1 21.9c1.7 1.7 3.9 2.5 6.1 2.5 2.2 0 4.3-.8 6-2.5l47.9-47.3c3.4-3.3 3.4-8.8.1-12.1-3.5-3.2-8.9-3.2-12.3.1z"/></svg>