<svg xmlns="http://www.w3.org/2000/svg" viewBox="0 0 277.8 49.8"><path d="M146.8 22.1h-1.5c-.6 0-1.1.1-1.6.3-.5.2-1 .5-1.4 1-.4.4-.7 1-1 1.8-.3.7-.4 1.7-.4 2.7 0 1 .1 1.9.3 2.6.2.7.5 1.3.9 1.7.4.4.9.7 1.4.9.5.2 1.1.3 1.7.3h1.5V22.1zm-2.3 13.7l-4.4 10h-3.2l4.8-10.7c-1.1-.6-2.1-1.4-2.7-2.6-.7-1.1-1-2.7-1-4.6 0-1.4.2-2.6.6-3.6.4-1 .9-1.9 1.6-2.6.7-.7 1.5-1.2 2.4-1.5.9-.3 1.9-.5 2.9-.5h4.2v26h-2.8v-10h-2.4z" fill="red"/><path d="M210 46c-2 0-3.5-.8-4.6-2.3-1.1-1.6-1.7-3.9-1.7-7.1 0-1.4.1-2.7.4-3.9.3-1.2.7-2.2 1.2-3 .5-.8 1.2-1.4 2-1.9.8-.4 1.7-.7 2.8-.7.8 0 1.5.1 2 .3.5.2 1 .4 1.4.7l-.4 2.7c-.4-.3-.8-.6-1.4-.9-.5-.3-1.1-.4-1.6-.4-1 0-1.8.6-2.5 1.7s-1 2.9-1 5.2c0 2.3.3 4.1.8 5.3.5 1.2 1.4 1.9 2.6 1.9.7 0 1.3-.1 1.8-.3.5-.2.9-.5 1.3-.8l.7 2.1c-.5.4-1 .7-1.6 1-.7.3-1.4.4-2.2.4zm-14.6-9.4v9.1h-2.8V27.4h2.8v8.5l4.4-8.5h2.9l-4.5 8.6 5.2 9.7h-3.1l-4.9-9.1zm-10.7-7.1c-.9 0-1.5.5-1.8 1.5-.4 1-.6 2.3-.7 3.9h4.7c0-.8 0-1.5-.1-2.2-.1-.7-.2-1.2-.3-1.7-.2-.5-.4-.9-.7-1.1-.3-.3-.7-.4-1.1-.4zm5.1 15c-.6.5-1.2.8-2 1.1-.7.3-1.6.4-2.5.4-1.9 0-3.4-.7-4.4-2.2-1.1-1.5-1.6-3.6-1.6-6.5 0-1.5.1-2.8.3-4.1.2-1.2.5-2.3 1-3.2.4-.9 1-1.6 1.7-2.1s1.5-.8 2.5-.8c.7 0 1.4.2 2.1.5.6.3 1.2.8 1.6 1.5.4.7.8 1.6 1 2.6.2 1.1.4 2.4.4 3.9v1.6h-7.6c0 2.1.3 3.7.9 4.7.6 1.1 1.4 1.6 2.6 1.6.8 0 1.5-.1 2.1-.4.6-.3 1.1-.6 1.5-.8l.4 2.2zm-16.5-14.8h-3.1v.3c0 1 0 2-.1 3.2 0 1.2-.1 2.3-.2 3.5-.1 1.2-.3 2.4-.5 3.5-.2 1.2-.5 2.2-.9 3.2h4.8V29.7zm4.2 19.7H175v-3.6h-7.8v3.6h-2.5v-5.9h1.1c.4-1 .7-2 1-3.2l.6-3.6c.1-1.2.2-2.5.3-3.8 0-1.3.1-2.6.1-3.8v-1.6h8.5v16h1.4v5.9zm-14.5-22v18.3h-2.8v-8.2H156v8.2h-2.8V27.4h2.8v7.8h4.2v-7.8h2.8zm63.3-6.2v24.6h-1.8V21.2h-5.1v-1.4h12.1v1.4zm8.8 23.5c.8 0 1.6-.4 2.2-1.1.6-.7 1.1-1.6 1.4-2.5V36h-2c-1.5 0-2.6.4-3.4 1.1s-1.1 1.9-1.1 3.5c0 1.3.3 2.3.8 3 .5.8 1.2 1.1 2.1 1.1zm4 1.1c-.1-.2-.2-.6-.2-.9-.1-.4-.2-.9-.2-1.5-.4.9-1 1.6-1.6 2.1-.7.5-1.4.8-2.4.8-1.2 0-2.2-.5-3-1.4-.8-.9-1.2-2.2-1.2-3.9 0-2 .5-3.4 1.6-4.5 1-1 2.5-1.5 4.5-1.5h2v-2.3c0-1.4-.3-2.4-.8-3.1-.5-.6-1.3-.9-2.3-.9-.8 0-1.5.2-2.2.5-.7.4-1.2.8-1.7 1.5l-.5-1.6c.4-.5.9-.9 1.6-1.3.7-.4 1.6-.6 2.7-.6 1.5 0 2.7.4 3.5 1.3.8.9 1.2 2.2 1.2 4v10c0 .6 0 1.3.1 1.9.1.6.2 1.1.3 1.5h-1.4zm6.8 0h-1.7V27.4h1.7V36l6.1-8.6h1.7l-6.1 8.5 6.5 9.9h-1.9l-6.3-9.5zm15-1.2c.6 0 1.1-.1 1.5-.3.4-.2.8-.4 1.1-.7.4-.3.7-.6.9-1l.5 1.4c-.3.4-.6.7-1 1-.3.3-.8.5-1.3.7-.5.2-1.2.3-1.9.3-1.8 0-3.3-.8-4.3-2.5s-1.5-4-1.5-7 .5-5.4 1.5-7.1c1-1.7 2.4-2.5 4.3-2.5.9 0 1.7.2 2.4.5s1.2.7 1.6 1.2l-.5 1.8c-.4-.6-.9-1-1.5-1.5-.6-.4-1.3-.6-2-.6-1.4 0-2.4.7-3.1 2.1-.7 1.4-1 3.4-1 6 0 2.5.3 4.5 1 5.9.8 1.6 1.9 2.3 3.3 2.3M276.2 33v-1.3c0-.4.1-.8.1-1.2h-.1c-.1.4-.3.8-.4 1.2-.2.4-.3.8-.5 1.2l-5.9 12.9H268V27.4h1.6v14c0 .4-.1.8-.1 1.2h.1c.1-.4.3-.8.4-1.2.2-.4.3-.8.5-1.2l5.9-12.9h1.5v18.3h-1.6V33zm-151.4 5.3h-1.6v-4.2l-2.2 4.2h-2v-6.2h1.6v4.2l2.2-4.2h1.9v6.2zM48 31.9s0 .1 0 0c2.7.8 3.5 3.4 3.4 5.6-.1 3.2-1.9 5.1-5.3 5.5-.7.1-1.3.1-2 .1H32.7c-1.2 0-1.5-.4-1.5-1.6V22.9c0-.7.4-1.1 1.1-1.2.3-.1.6-.1.9-.1h10.4c1.2 0 2.4.3 3.6.6 1.8.5 2.8 1.8 3.1 3.6.3 1.7.1 3.4-1.1 4.8-.4.7-.8 1-1.2 1.3zm-12.3 7.9h8.6c1.7 0 2.5-.9 2.5-2.6v-.7c-.1-1.6-.8-2.4-2.3-2.4-2.3-.1-4.6 0-6.8 0-.2 0-.5 0-.7.1-.8.3-1.2.7-1.3 1.6v4zm0-9.1h7.1c.4 0 .8 0 1.1-.1 1.1-.2 1.7-.8 1.9-1.9v-1.6c-.1-1.1-.8-1.7-1.8-1.9-.4 0-.8-.1-1.2-.1h-7.2c.1 2 .1 3.8.1 5.6zm65.8 3.9c.7 1.2 1.4 2.4 2 3.5.9 1.5 1.7 3 2.6 4.4.3.5.3.6-.4.6h-3.6c-.5 0-.8-.2-1-.6-1.3-2.4-2.7-4.8-4-7.2-.2-.4-.4-.4-.8-.4h-3.7c-.3 0-.6 0-.9.1-1.1.2-1.6.8-1.6 1.9v6.3h-3.8c-.5 0-.7-.2-.7-.7V23.6c0-1.4.4-1.9 1.8-1.9h10.8c1.4 0 2.7.3 4 .8 1.6.7 2.5 1.8 2.9 3.4.4 1.6.4 3.2 0 4.7-.4 1.9-1.7 3-3.5 3.7.3.2.2.3-.1.3zm-11-2.9h8.3c1.8 0 2.5-.9 2.6-2.7v-1.1c-.1-1.6-.8-2.5-2.5-2.6-2.8-.1-5.5 0-8.2 0h-.1c-.1 2.1-.1 4.3-.1 6.4zm-26.3 8.1h14.1c-.5 1.1-.8 2.2-1.3 3.2-.1.2-.5.3-.8.3H60.9c-.8-.1-1.1-.4-1.1-1.2V23.7c0-1.3.4-1.8 1.7-1.8h16.8c-.3.8-.6 1.4-.8 2.1-.7 1.6-.4 1.4-2 1.4H64.3v5.4h10.4c0 .2-.1.4-.1.5-.3.7-.6 1.4-.8 2.2-.2.5-.5.8-1.1.7H67c-.5 0-1 .1-1.5.2-.7.2-1.2.7-1.2 1.4-.1 1.2-.1 2.5-.1 4zm-41.6-18v13.8c0 1.2-.3 2.4-.8 3.6-.8 1.9-2.3 3-4.2 3.7-3.6 1.2-7.2 1.2-10.8.1-3.2-1.1-4.8-3.4-5.1-6.7 0-.6-.1-1.2-.1-1.8V22.8c0-.8 0-.9.9-.9h3.7v13c0 .4 0 .8.1 1.2.4 2.3 1.6 3.5 3.9 3.9 1.4.3 2.8.2 4.1 0 2.1-.4 3.3-1.7 3.6-3.8.1-.6.1-1.2.1-1.8V22.8c0-.8.1-.8.8-.8 1.3-.2 2.5-.2 3.8-.2z"/></svg>