<svg xmlns="http://www.w3.org/2000/svg" viewBox="0 0 500 500"><path d="M24.2 281h76.7v181.3H24.2zm282.7-62.3H200.8V80l52.7-51h110.7l-57.3 58z" fill="#fbb623"/><path d="M480.8 285.1l-.2-.1c-.2-.3-.4-.6-.7-.9-6.2-7.7-15.3-12.5-25.2-13.5-9.7-1-19.4 1.9-27 8-19.8 16.1-49.9 40.4-67.9 54.9a78.446 78.446 0 0 1-46.7 17.5l-51.1 1.7c-2.1.1-4-1-5-2.7l-5.7-9.7c-.9-1.6-1.1-3.5-.3-5.2.7-1.7 2.3-2.9 4.1-3.2l52.8-10c18.7-3.4 31.6-21 29.5-40.1-2.1-18.3-17.6-32.2-36-32.1h-1.8l-70.6-2.9c-28.3-1-52.4 4.4-80.6 18l-37 18c-5.1-10.8-16-17.8-27.9-17.7H42.6c-17 0-31.3 13.7-31.3 30.7v152.1c0 17 14.3 31.1 31.3 31.1h40.9c17 0 30.8-14.1 30.8-31.1v-10.3l39.3-7.2c12.7-1.9 20.7-2.6 34.2-2.1l107.4 5c2.2.1 4.4.1 6.6.1 36.4 0 71.6-12.7 99.6-36l74.4-61.7.2-.1c14.9-12.8 17-35.1 4.8-50.5zm-386.7 163c0 6-4.9 10.9-10.9 10.9H41.9c-6 0-10.9-4.9-10.9-10.9V295.9c0-6 4.9-10.9 10.9-10.9h41.3c6 0 10.9 4.9 10.9 10.9v152.2zm368.7-127.6l-74.3 61.6c-25.9 21.5-58.9 32.7-92.6 31.2l-107.4-5c-15.1-.6-24.3.2-38.1 2.3-.1 0-.3 0-.4.1l-35.9 6.6V303.5l42.8-20.7c25.1-12.1 46.4-16.9 71.1-16.1l71.1 2.9h2.1c9.1.1 16.4 7.5 16.3 16.6-.1 7.8-5.7 14.5-13.4 16l-52.8 10c-13.9 2.6-23.1 16-20.5 29.9.5 2.9 1.6 5.7 3.1 8.3l5.7 9.8c4.8 8.1 13.6 12.9 23 12.5l51.1-1.7c21.4-.7 42-8.4 58.6-21.8 18-14.5 48.2-38.9 68-55 3.5-2.8 7.9-4.1 12.3-3.6 4.4.4 8.4 2.5 11.3 5.8.2.3.4.6.7.9 6 7 5.1 17.3-1.8 23.2zm-22-140.7L386.4 215h-69.3v-24h72.3c2.1-.1 4.2-.8 5.9-2.1l56.8-41.1c4.5-3.2 5.5-9.4 2.3-13.9s-9.4-5.5-13.9-2.3c-.1 0-.1.1-.2.1L386.1 171h-69v-26h72.3c2.2.1 4.4-.6 6.2-2l56.8-44.8c4.4-3.4 5.1-9.8 1.7-14.1-3.4-4.3-9.7-5.1-14.1-1.7L385.9 125h-68.8v-25h72.3c2.5.1 4.9-.8 6.8-2.4L453 45.1c4-3.7 4.3-9.9.6-13.9-1.9-2.1-4.6-3.3-7.4-3.2h-68.4l-.1-.4c-1.5-3.9-5.2-6.5-9.3-6.6h-113c-2.6.1-5 1.1-6.8 2.9l-4.2 4.1h-71c-2.5 0-4.9.9-6.8 2.6l-56.8 52.6c-3 2.7-4 7-2.5 10.7 1.5 3.8 5.2 6.2 9.3 6.1h67.5v25h-67.5c-5.5 0-10 4.5-10 10s4.5 10 10 10h67.5v26h-67.5c-5.5 0-10 4.5-10 10s4.5 10 10 10h67.5v24h-67.5c-5.5 0-10 4.5-10 10s4.5 10 10 10h272.8c1.9.1 3.8-.4 5.5-1.4l56.8-37c4.6-3 5.9-9.1 2.9-13.7-3-4.7-9.2-6.1-13.8-3.1zM420.7 48l-35.2 32h-55.2l35-32h55.4zM142.1 80l35.3-32H223l-35 32h-45.9zm155 8.2V215h-93V92.5L259.4 41H343l-42.6 39.7c-2.1 1.9-3.3 4.6-3.3 7.5z"/></svg>