<svg xmlns="http://www.w3.org/2000/svg" viewBox="0 0 470 470"><path d="M226.7 14.5l3.3 36 9.9 13.3 9.5-7.3s4-29.3 4-30 .7-12.7 4-12c3.3.7 12 4.7 18 9.3s14 12.7 16 18.7.7 13.3 0 21.3 2.2 10.7-6.9 24c-9.1 13.3-14.4 17.3-14.4 24 0 6.7 0 27.3-2 30.7-2 3.3-14 10.7-18.7 10.7-4.7 0-23.3 3.3-25.3 0s-9.3-22.7-8.3-26.7-7.7-16.7-7.7-16.7-16.7-19.9-20-25.3c-3.3-5.4-5.3-10.1-5.3-17.4s7.3-25.3 7.3-25.3 14.7-12 17.3-15.3c2.6-3.4 19.3-12 19.3-12zm27.7 440.9l-3.3-33-9.9-12.2-9.5 6.7s-4 26.8-4 27.4c0 .6-.7 11.6-4 11-3.3-.6-12-4.3-18-8.5s-14-11.6-16-17.1c-2-5.5-.7-12.2 0-19.5.7-7.3.7-7.3 1.6-23.1.9-15.2 4.7-13.3 9.3-17.3 20-17.3 10.4-28.5 12.4-31.5 2-3.1 14-9.8 18.7-9.8 4.7 0 23.3-3.1 25.3 0s9.3 20.8 8.3 24.4c-1 3.7 13.3 15.6 13.3 15.6s11.1 17.9 14.4 22.8 5.3 9.2 5.3 15.9-7.3 23.2-7.3 23.2-14.7 11-17.3 14c-2.6 3.1-19.3 11-19.3 11z" fill="#fbb623"/><path d="M333 219c0-6.4-2-12.5-5.6-17.8 9.2-6 14.6-15.9 14.8-26.7 0-17.2-14.5-32-31.8-32h-37.3v-21.9c4.4-2.7 8.4-5.7 12.1-9.2.1-.1.2-.2.2-.3 24.8-24.8 24.8-66.7 0-91.5-6-6-13-10.4-22.2-14.1l-7.9-3.2c-3-1.2-6.4-.9-9.1 1s-4.3 5-4.2 8.3v38.1c0 1.4-.6 2-2 2s-2-.6-2-2v-38c0-5.7-4.7-10.2-10.3-10-1.2 0-2.3.3-3.4.7l-7.9 3.1c-8.4 3.1-15.9 7.9-22.3 14.1-12.1 12.1-18.8 28.6-18.7 45.8-.1 17.1 6.6 33.6 18.7 45.8.5.5.9.4 1.4 1.4h-39.1c-37.3 0-67.3 30.3-67.3 67.6V272c0 37.4 30 68.3 67.4 68.3h49.9v9c-4.3 2.7-8.4 5.7-12.1 9.2-.1.1-.1.2-.2.3-24.9 25.5-24.9 66.1 0 91.5 6 6 13 10.4 22.2 14.1l7.9 3.2c3.2 1.2 6.7.9 9.4-1 2.8-1.8 4.5-4.9 4.6-8.3v-38.1c0-1.4.6-2 2-2s2 .6 2 2v38.1c-.1 3.3 1.5 6.4 4.2 8.3s6.1 2.2 9.1 1l7.8-3.1c8.4-3.1 15.9-7.9 22.2-14.1 24.8-24.8 24.9-66.7 0-91.5-3.6-3.8-7.9-7-12.4-9.4v-9H288c12.7 0 27.5-14.1 27.5-32 0-6.2-1.9-12.2-5.3-17.4 8.9-6.4 14.1-16.5 14.3-27.4 0-6.6-2.1-12.9-5.9-18.2 8.9-6 14.3-15.9 14.4-26.5zM208.5 33.6c2.9-2.9 6.2-5.4 9.9-7.2v23.2c0 12.1 9.7 21.9 21.9 21.9 12.1 0 21.9-9.7 21.9-21.9v-23c3 2 6.7 4.3 9.4 7.1 17.1 17.1 17.1 46 0 63.3-3.7 3.5-8 6.4-12.5 8.5-3.6 1.6-5.9 5.2-5.9 9.1v28h-26.9v-27.8c0-3.9-2.2-7.5-5.8-9.1-4.6-2-8.8-4.8-12.2-8.4-17.1-17.4-17-46.4.2-63.7zm63 402.7c-2.9 2.7-6.1 5.1-9.4 7.2v-23.2c0-12.1-9.7-21.9-21.9-21.9s-21.9 9.7-21.9 21.9v23.1c-3.7-1.8-7-4.2-9.9-7.1-17.1-17.1-17.3-46-.2-63.3 3.6-3.5 7.8-6.4 12.4-8.5 3.6-1.6 5.8-5.2 5.7-9.1v-15.1h26.9v15c0 3.9 2.3 7.5 5.8 9.1 4.6 2 8.9 4.8 12.4 8.4 17.1 17.2 17.3 46.2.1 63.5zm38.8-250.1h-12c-5.2 0-9.7 3.8-10.2 9-.6 5.9 4.1 10.9 9.9 10.9h.3l.7.2c1.2.3 2.5.5 3.7.6 5.8.8 10.5 6.2 10.5 12 0 6.4-5.6 12.1-11.9 12.1H289c-5.5 0-9.9 4.4-9.9 9.7 0 5 3.5 9.1 8.2 9.8.9.2 1.8.4 2.6.7.9.3 1.9.5 2.9.5 6.4 0 11.9 5.7 11.9 12 0 6.7-5.8 11-7.7 12h-16.6c-5.5-.1-9.8 4.3-9.9 9.6-.1 4.9 3.5 9.1 8.2 9.8.6.1 1.2.3 1.8.5 1 .3 1.9.5 2.9.6 4.6.2 8.9 2.6 10.9 6.7 4.6 9.3-3.8 16.1-6.4 17.4H156.4c-26.3 0-47.5-21.3-47.5-47.5v-92.5c-.2-26.3 21-47.7 47.2-47.9h50.2v9.9h-26.1c-5.2 0-9.7 3.8-10.2 9-.6 5.9 4.1 10.9 9.9 10.9h129.9c6.2 0 11.6 4.6 12.2 10.7.9 7.3-4.7 13.3-11.7 13.3z"/></svg>