<svg xmlns="http://www.w3.org/2000/svg" viewBox="0 0 458.1 458"><path d="M81.6 377.1c82.8-99.1 213.8-96.1 294.8 0-157.4 152.9-294.8 0-294.8 0z" fill="#fbb623"/><path d="M391 67C348.1 24 289.8-.2 229 0 102.5 0 0 102.5 0 229c0 60.7 24.1 119 67.1 161.9 89.4 89.4 234.4 89.4 323.9 0s89.4-234.4 0-323.9zM81.6 377.1c71-81.4 194.6-89.8 276-18.8 6.7 5.8 13 12.1 18.8 18.8-81.5 81.2-213.3 81.2-294.8 0zM390 362.2c-79.2-88.9-215.5-96.7-304.4-17.5-6.2 5.5-12 11.3-17.5 17.5-28.9-34.8-45.7-78-47.8-123.2h34c5.5 0 10-4.5 10-10s-4.5-10-10-10h-34c2.3-48.5 21.4-94.6 54.1-130.5l23.8 23.8c3.9 3.9 10.2 3.9 14.1 0s3.9-10.2 0-14.1L88.5 74.4c35.9-32.7 82-51.9 130.5-54.1v34c0 5.5 4.5 10 10 10s10-4.5 10-10v-34c48.5 2.3 94.6 21.4 130.5 54.1l-23.8 23.8c-3.9 3.9-4 10.2-.1 14.1s10.2 4 14.1.1l.1-.1 23.8-23.8c32.7 35.9 51.9 82 54.1 130.5h-34c-5.5 0-10 4.5-10 10 .1 5.5 4.5 10 10.1 10h34c-2.1 45.2-18.9 88.4-47.8 123.2z"/><path d="M227.4 294.7l149.5-131.3c4.1-3.6 10.5-3.2 14.1.9 3.6 4.1 3.2 10.5-.9 14.1L240 310.3c-4.1-5.1-8.2-10.5-12.6-15.6z"/></svg>