<svg xmlns="http://www.w3.org/2000/svg" viewBox="0 0 420 420"><path d="M80.8 286.9H56c-13.1 0-23.7-10.6-23.7-23.7v-64.9c0-13.1 10.6-23.7 23.7-23.7h24.8c13.1 0 23.7 10.6 23.7 23.7v64.9c0 13.1-10.6 23.7-23.7 23.7zm284.1 0h-24.8c-13.1 0-23.7-10.6-23.7-23.7v-64.9c0-13.1 10.6-23.7 23.7-23.7h24.8c13.1 0 23.7 10.6 23.7 23.7v64.9c0 13.1-10.6 23.7-23.7 23.7z" fill="#fbb623"/><path d="M352.1 160.3v-16c0-38.2-13.5-73.7-38-100.1-25.1-27-59.7-41.9-97.4-41.9h-13.2c-37.7 0-72.2 14.8-97.4 41.9-24.5 26.3-38 61.9-38 100.1v16c-29.8 2-53.4 26.8-53.4 57.1v25c0 31.5 25.7 57.1 57.1 57.1H104c5.8 0 10.5-4.7 10.5-10.5V170.6c0-5.8-4.7-10.5-10.5-10.5H89v-15.8c0-69 49.2-121 114.4-121h13.2c65.3 0 114.4 52 114.4 121v15.8h-15c-5.8 0-10.5 4.7-10.5 10.5v118.3c0 5.8 4.7 10.5 10.5 10.5h14.7c-4.3 54.6-41.9 67.3-59.3 70.1-4.8-14.7-18.7-25.4-35-25.4h-26.2c-20.2 0-36.7 16.5-36.7 36.7s16.5 36.8 36.7 36.8h26.3c16.9 0 31.1-11.5 35.4-27 8.6-1.2 22.1-4.3 35.5-12.1 18.9-11.1 41.4-33.7 44.3-79.2 29.9-1.8 53.7-26.7 53.7-57.1v-25c0-30.1-23.6-55-53.3-56.9zM93.7 278.4H72c-20 0-36.2-16.2-36.2-36.2v-25c0-20 16.2-36.2 36.2-36.2h21.7v97.4zm142.7 118.3h-26.3c-8.7 0-15.8-7.1-15.8-15.8s7.1-15.8 15.8-15.8h26.3c8.7 0 15.8 7.1 15.8 15.8s-7.1 15.8-15.8 15.8zm148-154.5c0 20-16.2 36.2-36.2 36.2h-21.7V181h21.7c20 0 36.2 16.2 36.2 36.2v25z"/></svg>